<svg width="1604" height="800" viewBox="0 0 1604 800" fill="none" xmlns="http://www.w3.org/2000/svg">
<path d="M371.454 82.7427L371.587 123.94H413.396V496.077H372.389V537.216H123.891V495.275L82.6719 495.141V123.812H124.479L124.212 82.6714L371.454 82.7427ZM288.506 289.441V330.447H247.099V371.454H206.555V411.926H165.219V454.274H330.652L330.715 442.453V289.441H288.506ZM165.219 176.233V329.245H207.428V288.239H248.835V247.232H289.379V206.759H330.715V164.412H165.28L165.219 176.233Z" fill="#161616"/>
<path d="M1169.34 80H1284.23L1414.88 328.822H1429.32C1429.32 290.019 1429.32 261.857 1429.32 246.1V80H1523.2V533H1433.26L1277.66 222.465H1263.22C1263.22 262.492 1263.22 289.43 1263.22 305.187V533H1169.34V80Z" fill="#161616"/>
<path d="M970.821 456.187L970.82 156.813V80L1067.33 80V156.813V456.187V533H970.821V456.187Z" fill="#161616"/>
<path d="M514.07 80H694.614C759.828 80 808.192 98.3826 839.705 135.148C871.656 171.475 887.631 228.593 887.631 306.5C887.631 384.845 871.656 442.181 839.705 478.509C808.192 514.836 759.828 533 694.614 533H514.07V80ZM688.049 456.187C722.188 456.187 747.136 447.652 762.892 430.583C778.649 413.075 786.527 384.407 786.527 344.578V268.422C786.527 228.593 778.649 200.143 762.892 183.074C747.136 165.567 722.188 156.813 688.049 156.813H609.922V456.187H688.049Z" fill="#161616"/>
<text x="88" y="720" fill="#161616" font-family="'Mozilla Sans Headline', Inter, -apple-system, BlinkMacSystemFont, 'Segoe UI', Roboto, Helvetica, Arial, sans-serif" font-size="170" font-weight="400" letter-spacing="2">by Mozilla</text>
</svg>
